# xmcd
#
# Track frame offsets: 
#        150
#        14525
#        30485
#        44087
#        64060
#        78450
#        91902
#        109100
#        122282
#        138862
#        159107
#        175105
#        189867
#        207090
#        230687
#        245060
#        262192
#        277567
#        294065
#        310550
#
# Disc length: 4355 seconds
#
# Revision: 3
# Processed by: cddbd v1.5.2PL0 Copyright (c) Steve Scherf et al.
# Submitted via: ExactAudioCopy v1.0b1
#
DISCID=fe110114
DTITLE=John Denver - Reflections: Songs of Love and Life
DYEAR=1900
DGENRE=Country
TTITLE0=You're So Beautiful
TTITLE1=Dearest Esmeralda
TTITLE2=Annie's Song
TTITLE3=My Sweet Lady
TTITLE4=Polka Dots And Moon Beams
TTITLE5=For Baby (For Bobbie)
TTITLE6=Come and Let Me Look in Your Eyes
TTITLE7=Daydream
TTITLE8=Let It Be
TTITLE9=What's on Your Mind
TTITLE10=I'm Sorry
TTITLE11=Rhymes and Reasons
TTITLE12=Molly
TTITLE13=Sunshine on My Shoulders
TTITLE14=How Can I Leave You Again
TTITLE15=Fire and Rain
TTITLE16=Isabel
TTITLE17=Goodbye Again
TTITLE18=Autograph
TTITLE19=Calypso
EXTD=
EXTT0=
EXTT1=
EXTT2=
EXTT3=
EXTT4=
EXTT5=
EXTT6=
EXTT7=
EXTT8=
EXTT9=
EXTT10=
EXTT11=
EXTT12=
EXTT13=
EXTT14=
EXTT15=
EXTT16=
EXTT17=
EXTT18=
EXTT19=
PLAYORDER=
